ffmpeg started on 2016-11-24 at 08:57:48
Report written to "Output/NVENCh264/results/ffmpeg/crowd_run_2160p50hp3000k.log"
Command line:
Tools/ffmpeg/ffmpeg -benchmark -y -i Input/y4m/crowd_run_2160p50.y4m -c:v h264_nvenc -preset hp -b:v 3000k -an Output/NVENCh264/encoded/crowd_run_2160p50hp3000k.mkv
ffmpeg version N-82227-gdb23fde Copyright (c) 2000-2016 the FFmpeg developers
  built with gcc 5.4.0 (Ubuntu 5.4.0-6ubuntu1~16.04.2) 20160609
  configuration: --prefix=/home/jaroslav/ffmpeg_build --pkg-config-flags=--static --extra-cflags=-I/home/jaroslav/ffmpeg_build/include --extra-ldflags=-L/home/jaroslav/ffmpeg_build/lib --bindir=/home/jaroslav/bin --enable-gpl --enable-libass --enable-libfdk-aac --enable-libfreetype --enable-libmp3lame --enable-libopus --enable-libtheora --enable-libvorbis --enable-libvpx --enable-libx264 --enable-libx265 --enable-nvenc --enable-libmfx --enable-libxvid --enable-libgsm --enable-libopencore-amrnb --enable-version3 --enable-nonfree
  libavutil      55. 35.100 / 55. 35.100
  libavcodec     57. 66.101 / 57. 66.101
  libavformat    57. 57.100 / 57. 57.100
  libavdevice    57.  2.100 / 57.  2.100
  libavfilter     6. 66.100 /  6. 66.100
  libswscale      4.  3.100 /  4.  3.100
  libswresample   2.  4.100 /  2.  4.100
  libpostproc    54.  2.100 / 54.  2.100
Input #0, yuv4mpegpipe, from 'Input/y4m/crowd_run_2160p50.y4m':
  Duration: 00:00:10.00, start: 0.000000, bitrate: 4976642 kb/s
    Stream #0:0: Video: rawvideo (I420 / 0x30323449), yuv420p(progressive), 3840x2160, SAR 1:1 DAR 16:9, 50 fps, 50 tbr, 50 tbn, 50 tbc
Output #0, matroska, to 'Output/NVENCh264/encoded/crowd_run_2160p50hp3000k.mkv':
  Metadata:
    encoder         : Lavf57.57.100
    Stream #0:0: Video: h264 (h264_nvenc) (Main) (H264 / 0x34363248), yuv420p, 3840x2160 [SAR 1:1 DAR 16:9], q=-1--1, 3000 kb/s, 50 fps, 1k tbn, 50 tbc
    Metadata:
      encoder         : Lavc57.66.101 h264_nvenc
    Side data:
      cpb: bitrate max/min/avg: 0/0/3000000 buffer size: 6000000 vbv_delay: -1
Stream mapping:
  Stream #0:0 -> #0:0 (rawvideo (native) -> h264 (h264_nvenc))
Press [q] to stop, [?] for help
frame=   17 fps=0.0 q=0.0 size=       0kB time=00:00:00.00 bitrate=N/A speed=   0x    frame=   29 fps= 24 q=0.0 size=       0kB time=00:00:00.00 bitrate=N/A speed=   0x    frame=   35 fps= 20 q=49.0 size=       1kB time=00:00:00.08 bitrate=  72.4kbits/s speed=0.0468x    frame=   37 fps= 14 q=49.0 size=       1kB time=00:00:00.12 bitrate=  48.5kbits/s speed=0.0443x    frame=   38 fps= 11 q=49.0 size=       1kB time=00:00:00.14 bitrate=  41.6kbits/s speed=0.042x    frame=   39 fps=9.8 q=49.0 size=       1kB time=00:00:00.16 bitrate=  36.4kbits/s speed=0.0406x    frame=   40 fps=5.3 q=49.0 size=       1kB time=00:00:00.18 bitrate=  32.4kbits/s speed=0.0238x    frame=   41 fps=3.5 q=49.0 size=       1kB time=00:00:00.20 bitrate=  29.2kbits/s speed=0.017x    frame=   42 fps=3.3 q=49.0 size=       1kB time=00:00:00.22 bitrate=  26.5kbits/s speed=0.0173x    frame=   43 fps=3.2 q=49.0 size=       1kB time=00:00:00.24 bitrate=  24.3kbits/s speed=0.0179x    frame=   44 fps=3.1 q=49.0 size=       1kB time=00:00:00.26 bitrate=  22.5kbits/s speed=0.0185x    frame=   46 fps=3.1 q=49.0 size=       1kB time=00:00:00.30 bitrate=  19.5kbits/s speed=0.0201x    frame=   47 fps=3.0 q=49.0 size=       1kB time=00:00:00.32 bitrate=  18.3kbits/s speed=0.0202x    frame=   49 fps=3.0 q=49.0 size=       1kB time=00:00:00.36 bitrate=  16.2kbits/s speed=0.022x    frame=   52 fps=3.0 q=49.0 size=       1kB time=00:00:00.42 bitrate=  13.9kbits/s speed=0.0241x    frame=   54 fps=2.9 q=49.0 size=       1kB time=00:00:00.46 bitrate=  12.7kbits/s speed=0.0249x    frame=   56 fps=2.9 q=49.0 size=       1kB time=00:00:00.50 bitrate=  11.7kbits/s speed=0.0258x    frame=   57 fps=2.8 q=49.0 size=       1kB time=00:00:00.52 bitrate=  11.3kbits/s speed=0.0257x    frame=   60 fps=2.9 q=49.0 size=       1kB time=00:00:00.58 bitrate=  10.1kbits/s speed=0.0277x    frame=   61 fps=2.8 q=49.0 size=       1kB time=00:00:00.60 bitrate=   9.8kbits/s speed=0.0279x    frame=   63 fps=2.8 q=49.0 size=       1kB time=00:00:00.64 bitrate=   9.1kbits/s speed=0.0282x    frame=   64 fps=2.7 q=49.0 size=       1kB time=00:00:00.66 bitrate=   8.9kbits/s speed=0.0281x    frame=   67 fps=2.8 q=49.0 size=       1kB time=00:00:00.72 bitrate=   8.1kbits/s speed=0.0296x    frame=   68 fps=2.7 q=49.0 size=       1kB time=00:00:00.74 bitrate=   7.9kbits/s speed=0.0294x    frame=   69 fps=2.7 q=49.0 size=       1kB time=00:00:00.76 bitrate=   7.7kbits/s speed=0.0293x    frame=   71 fps=2.6 q=49.0 size=       1kB time=00:00:00.80 bitrate=   7.3kbits/s speed=0.0295x    frame=   72 fps=2.6 q=49.0 size=       1kB time=00:00:00.82 bitrate=   7.1kbits/s speed=0.0293x    frame=   75 fps=2.6 q=49.0 size=       1kB time=00:00:00.88 bitrate=   6.7kbits/s speed=0.0308x    frame=   76 fps=2.6 q=49.0 size=       1kB time=00:00:00.90 bitrate=   6.5kbits/s speed=0.031x    frame=   77 fps=2.6 q=49.0 size=       1kB time=00:00:00.92 bitrate=   6.4kbits/s speed=0.0309x    frame=   79 fps=2.6 q=49.0 size=       1kB time=00:00:00.96 bitrate=   6.1kbits/s speed=0.0311x    frame=   80 fps=2.5 q=49.0 size=       1kB time=00:00:00.98 bitrate=   6.0kbits/s speed=0.0308x    frame=   83 fps=2.6 q=49.0 size=       1kB time=00:00:01.04 bitrate=   5.6kbits/s speed=0.032x    frame=   84 fps=2.5 q=49.0 size=       1kB time=00:00:01.06 bitrate=   5.5kbits/s speed=0.0321x    frame=   86 fps=2.5 q=49.0 size=       1kB time=00:00:01.10 bitrate=   5.3kbits/s speed=0.0325x    frame=   90 fps=2.6 q=49.0 size=       1kB time=00:00:01.18 bitrate=   5.0kbits/s speed=0.034x    frame=   91 fps=2.6 q=49.0 size=       1kB time=00:00:01.20 bitrate=   4.9kbits/s speed=0.0338x    frame=   93 fps=2.6 q=49.0 size=       1kB time=00:00:01.24 bitrate=   4.7kbits/s speed=0.0343x    frame=   95 fps=2.6 q=49.0 size=       1kB time=00:00:01.28 bitrate=   4.6kbits/s speed=0.0345x    frame=   96 fps=2.5 q=49.0 size=       1kB time=00:00:01.30 bitrate=   4.5kbits/s speed=0.0343x    frame=   97 fps=2.5 q=49.0 size=       1kB time=00:00:01.32 bitrate=   4.4kbits/s speed=0.0342x    frame=   99 fps=2.5 q=49.0 size=       1kB time=00:00:01.36 bitrate=   4.3kbits/s speed=0.0346x    frame=  101 fps=2.5 q=49.0 size=       1kB time=00:00:01.40 bitrate=   4.2kbits/s speed=0.0346x    frame=  103 fps=2.5 q=49.0 size=       1kB time=00:00:01.44 bitrate=   4.1kbits/s speed=0.0348x    frame=  104 fps=2.4 q=49.0 size=       1kB time=00:00:01.46 bitrate=   4.0kbits/s speed=0.0344x    frame=  105 fps=2.4 q=49.0 size=       1kB time=00:00:01.48 bitrate=   4.0kbits/s speed=0.0341x    frame=  108 fps=2.4 q=49.0 size=       1kB time=00:00:01.54 bitrate=   3.8kbits/s speed=0.0348x    frame=  109 fps=2.4 q=49.0 size=       1kB time=00:00:01.56 bitrate=   3.8kbits/s speed=0.0348x    frame=  110 fps=2.4 q=49.0 size=       1kB time=00:00:01.58 bitrate=   3.7kbits/s speed=0.0347x    frame=  111 fps=2.4 q=49.0 size=       1kB time=00:00:01.60 bitrate=   3.7kbits/s speed=0.0345x    frame=  112 fps=2.4 q=49.0 size=       1kB time=00:00:01.62 bitrate=   3.6kbits/s speed=0.0345x    frame=  115 fps=2.4 q=49.0 size=       1kB time=00:00:01.68 bitrate=   3.5kbits/s speed=0.0351x    frame=  116 fps=2.4 q=49.0 size=       1kB time=00:00:01.70 bitrate=   3.4kbits/s speed=0.0349x    frame=  118 fps=2.4 q=49.0 size=       1kB time=00:00:01.74 bitrate=   3.4kbits/s speed=0.035x    frame=  120 fps=2.4 q=49.0 size=       1kB time=00:00:01.78 bitrate=   3.3kbits/s speed=0.0351x    frame=  122 fps=2.4 q=49.0 size=       1kB time=00:00:01.82 bitrate=   3.2kbits/s speed=0.0354x    frame=  124 fps=2.4 q=49.0 size=       1kB time=00:00:01.86 bitrate=   3.2kbits/s speed=0.0356x    frame=  125 fps=2.4 q=49.0 size=       1kB time=00:00:01.88 bitrate=   3.1kbits/s speed=0.0356x    frame=  127 fps=2.4 q=49.0 size=       1kB time=00:00:01.92 bitrate=   3.1kbits/s speed=0.0357x    frame=  128 fps=2.3 q=49.0 size=       1kB time=00:00:01.94 bitrate=   3.0kbits/s speed=0.0355x    frame=  129 fps=2.3 q=49.0 size=       1kB time=00:00:01.96 bitrate=   3.0kbits/s speed=0.0353x    frame=  132 fps=2.3 q=49.0 size=       1kB time=00:00:02.02 bitrate=   2.9kbits/s speed=0.0358x    frame=  134 fps=2.3 q=49.0 size=       1kB time=00:00:02.06 bitrate=   2.8kbits/s speed=0.0358x    frame=  135 fps=2.3 q=49.0 size=       1kB time=00:00:02.08 bitrate=   2.8kbits/s speed=0.0358x    frame=  137 fps=2.3 q=49.0 size=       1kB time=00:00:02.12 bitrate=   2.8kbits/s speed=0.0357x    frame=  138 fps=2.3 q=49.0 size=       1kB time=00:00:02.14 bitrate=   2.7kbits/s speed=0.0357x    frame=  141 fps=2.3 q=49.0 size=       1kB time=00:00:02.20 bitrate=   2.7kbits/s speed=0.036x    frame=  143 fps=2.3 q=49.0 size=       1kB time=00:00:02.24 bitrate=   2.6kbits/s speed=0.0363x    frame=  146 fps=2.3 q=49.0 size=       1kB time=00:00:02.30 bitrate=   2.5kbits/s speed=0.0367x    frame=  147 fps=2.3 q=49.0 size=       1kB time=00:00:02.32 bitrate=   2.5kbits/s speed=0.0367x    frame=  149 fps=2.3 q=49.0 size=       1kB time=00:00:02.36 bitrate=   2.5kbits/s speed=0.0369x    frame=  152 fps=2.4 q=49.0 size=       1kB time=00:00:02.42 bitrate=   2.4kbits/s speed=0.0375x    frame=  169 fps=2.6 q=49.0 size=       1kB time=00:00:02.76 bitrate=   2.1kbits/s speed=0.0424x    frame=  178 fps=2.7 q=49.0 size=       1kB time=00:00:02.94 bitrate=   2.0kbits/s speed=0.0445x    frame=  179 fps=2.7 q=49.0 size=       1kB time=00:00:02.96 bitrate=   2.0kbits/s speed=0.0443x    frame=  180 fps=2.7 q=49.0 size=       1kB time=00:00:02.98 bitrate=   2.0kbits/s speed=0.0442x    frame=  181 fps=2.7 q=49.0 size=       1kB time=00:00:03.00 bitrate=   2.0kbits/s speed=0.0441x    frame=  184 fps=2.7 q=49.0 size=       1kB time=00:00:03.06 bitrate=   1.9kbits/s speed=0.0444x    frame=  185 fps=2.7 q=49.0 size=       1kB time=00:00:03.08 bitrate=   1.9kbits/s speed=0.0443x    frame=  188 fps=2.7 q=49.0 size=       1kB time=00:00:03.14 bitrate=   1.9kbits/s speed=0.0448x    frame=  190 fps=2.7 q=49.0 size=       1kB time=00:00:03.18 bitrate=   1.8kbits/s speed=0.0446x    frame=  191 fps=2.7 q=49.0 size=       1kB time=00:00:03.20 bitrate=   1.8kbits/s speed=0.0444x    frame=  193 fps=2.6 q=49.0 size=       1kB time=00:00:03.24 bitrate=   1.8kbits/s speed=0.0442x    frame=  197 fps=2.7 q=49.0 size=       1kB time=00:00:03.32 bitrate=   1.8kbits/s speed=0.0447x    frame=  199 fps=2.7 q=49.0 size=       1kB time=00:00:03.36 bitrate=   1.7kbits/s speed=0.045x    frame=  201 fps=2.7 q=49.0 size=       1kB time=00:00:03.40 bitrate=   1.7kbits/s speed=0.045x    frame=  206 fps=2.7 q=49.0 size=       1kB time=00:00:03.50 bitrate=   1.7kbits/s speed=0.046x    frame=  211 fps=2.8 q=49.0 size=       1kB time=00:00:03.60 bitrate=   1.6kbits/s speed=0.047x    frame=  228 fps=3.0 q=49.0 size=       1kB time=00:00:03.94 bitrate=   1.5kbits/s speed=0.0511x    frame=  246 fps=3.2 q=49.0 size=       1kB time=00:00:04.30 bitrate=   1.4kbits/s speed=0.0554x    frame=  264 fps=3.4 q=49.0 size=       1kB time=00:00:04.66 bitrate=   1.3kbits/s speed=0.0596x    frame=  282 fps=3.6 q=49.0 size=    3891kB time=00:00:05.02 bitrate=6348.9kbits/s speed=0.0638x    frame=  296 fps=3.7 q=49.0 size=    3891kB time=00:00:05.30 bitrate=6013.5kbits/s speed=0.0669x    frame=  303 fps=3.8 q=49.0 size=    3891kB time=00:00:05.44 bitrate=5858.8kbits/s speed=0.068x    frame=  308 fps=3.8 q=49.0 size=    3891kB time=00:00:05.54 bitrate=5753.0kbits/s speed=0.0688x    frame=  326 fps=4.0 q=49.0 size=    3891kB time=00:00:05.90 bitrate=5402.1kbits/s speed=0.0728x    frame=  344 fps=4.2 q=49.0 size=    3891kB time=00:00:06.26 bitrate=5091.5kbits/s speed=0.0768x    frame=  362 fps=4.4 q=49.0 size=    3891kB time=00:00:06.62 bitrate=4814.6kbits/s speed=0.0807x    frame=  380 fps=4.6 q=49.0 size=    3891kB time=00:00:06.98 bitrate=4566.3kbits/s speed=0.0845x    frame=  398 fps=4.8 q=49.0 size=    3891kB time=00:00:07.34 bitrate=4342.4kbits/s speed=0.0884x    frame=  409 fps=4.9 q=49.0 size=    3891kB time=00:00:07.56 bitrate=4216.1kbits/s speed=0.0903x    frame=  427 fps=5.1 q=49.0 size=    3891kB time=00:00:07.92 bitrate=4024.4kbits/s speed=0.094x    frame=  445 fps=5.2 q=49.0 size=    3891kB time=00:00:08.28 bitrate=3849.5kbits/s speed=0.0977x    frame=  463 fps=5.4 q=49.0 size=    3891kB time=00:00:08.64 bitrate=3689.1kbits/s speed=0.101x    frame=  481 fps=5.6 q=49.0 size=    3891kB time=00:00:09.00 bitrate=3541.6kbits/s speed=0.105x    frame=  499 fps=5.8 q=49.0 size=    3891kB time=00:00:09.36 bitrate=3405.4kbits/s speed=0.108x    frame=  500 fps=5.8 q=49.0 Lsize=    8063kB time=00:00:09.98 bitrate=6617.9kbits/s speed=0.116x    
video:8059kB audio:0kB subtitle:0kB other streams:0kB global headers:0kB muxing overhead: 0.055162%
bench: utime=1.344s
bench: maxrss=977832kB
